<?xml version="1.0"?>
<svg version="1.1" xmlns="http://www.w3.org/2000/svg" width="400" height="200" style=""><path fill="#d1c7d1" d="M16.7275390625,129.9345703125l0.5947265625-0.7080078125q-0.11328125-4.7578125-0.2548828125-9.4873046875t-0.1416015625-9.40234375q0-5.8056640625,0.69384765625-11.22900390625t1.37353515625-11.11572265625q0.056640625-0.33984375,0.32568359375-0.55224609375t0.66552734375-0.35400390625t0.80712890625-0.1982421875t0.75048828125-0.056640625q0.453125,0,1.1328125,0.169921875t1.359375,0.9912109375q0,0.283203125,0.04248046875,0.49560546875t0.04248046875,0.49560546875q0,2.15234375-0.58056640625,4.6162109375t-0.77880859375,4.7294921875q-0.2265625,2.775390625-0.3115234375,5.494140625t-0.0849609375,5.5224609375l0.056640625,2.4921875q0.56640625-0.7080078125,1.6142578125-1.8125t2.265625-2.13818359375t2.435546875-1.77001953125t2.208984375-0.736328125q1.5009765625,0,2.08154296875,0.849609375t0.58056640625,2.2373046875q0,1.2744140625-0.55224609375,2.662109375t-1.4443359375,2.70458984375t-2.02490234375,2.36474609375t-2.2373046875,1.5576171875q1.5009765625,1.869140625,3.07275390625,3.568359375t3.44091796875,3.2001953125l0,0.6513671875q-0.056640625,0.283203125-0.35400390625,0.4248046875t-0.6513671875,0.2265625t-0.69384765625,0.12744140625t-0.56640625,0.04248046875q-1.3876953125,0-2.67626953125-0.8212890625t-2.4072265625-2.0107421875t-2.10986328125-2.5205078125t-1.8125-2.322265625q0.169921875,3.2568359375,0.38232421875,6.49951171875t0.21240234375,6.49951171875q0,0.396484375-0.35400390625,0.66552734375t-0.8212890625,0.41064453125t-0.94873046875,0.1982421875t-0.79296875,0.056640625q-1.6708984375,0-2.36474609375-0.60888671875t-1.17529296875-2.10986328125z M22.533203125,116.595703125q0.7080078125,0,1.68505859375-0.60888671875t2.02490234375-1.51513671875t1.9541015625-1.91162109375t1.45849609375-1.91162109375t0.55224609375-1.45849609375t-0.7646484375-0.49560546875q-0.283203125,0-1.1611328125,0.8212890625t-1.9541015625,2.0107421875t-2.15234375,2.5771484375t-1.642578125,2.4921875z M39.091240234375,118.974609375q0-1.6142578125,0.41064453125-3.32763671875t1.302734375-3.0869140625t2.25146484375-2.2373046875t3.28515625-0.86376953125q1.4443359375,0,3.04443359375,0.49560546875t2.93115234375,1.416015625t2.16650390625,2.25146484375t0.83544921875,2.9736328125q0,1.982421875-0.72216796875,3.7666015625t-2.02490234375,3.18603515625t-3.04443359375,2.208984375t-3.78076171875,0.80712890625q-1.6708984375,0-2.9169921875-0.60888671875t-2.08154296875-1.62841796875t-1.24609375-2.4072265625t-0.41064453125-2.9453125z M43.254326171875,118.91796875q0,0.509765625,0.15576171875,1.5009765625t0.46728515625,1.93994140625t0.80712890625,1.642578125t1.20361328125,0.63720703125q1.5009765625-0.169921875,2.47802734375-0.97705078125t1.5859375-1.96826171875t0.849609375-2.5205078125t0.24072265625-2.5771484375q0-1.5576171875-0.60888671875-2.60546875t-1.99658203125-1.69921875q0,0.056640625,0.056640625,0.056640625t0.056640625-0.056640625l-0.7080078125-0.169921875q-0.283203125-0.11328125-0.69384765625-0.2548828125t-0.80712890625-0.623046875q-1.1044921875,0.396484375-1.71337890625,1.01953125t-0.92041015625,1.51513671875t-0.38232421875,2.13818359375t-0.07080078125,3.001953125z M60.54869140625,128.490234375q0-0.8212890625,0.07080078125-1.7275390625t0.12744140625-1.69921875l0.169921875-4.248046875q0.283203125-5.09765625,0.69384765625-10.025390625t0.69384765625-9.96875q0.169921875-2.775390625,0.2548828125-5.45166015625t0.2548828125-5.45166015625q-0.11328125-0.2265625-0.11328125-0.3115234375q0-0.396484375,0.29736328125-0.623046875t0.69384765625-0.38232421875t0.83544921875-0.21240234375t0.66552734375-0.056640625l0.6513671875,0q0.8779296875,0.11328125,1.2744140625,0.55224609375t0.509765625,1.0478515625t0.056640625,1.302734375t-0.056640625,1.28857421875q0,4.1064453125-0.1982421875,8.36865234375t-0.453125,8.552734375t-0.46728515625,8.5810546875t-0.21240234375,8.48193359375l0,1.982421875q0,1.3310546875-0.75048828125,1.755859375t-2.08154296875,0.4248046875q-1.1611328125,0-2.0390625-0.509765625t-0.8779296875-1.6708984375z M73.538369140625,118.0966796875q0-2.208984375,0.46728515625-4.00732421875t1.48681640625-3.04443359375t2.67626953125-1.93994140625t4.03564453125-0.69384765625q1.3310546875,0,2.71875,0.35400390625t2.37890625,1.31689453125q0-0.56640625,0.11328125-2.33642578125t0.283203125-4.12060546875t0.35400390625-4.927734375t0.32568359375-4.7861328125t0.2548828125-3.7099609375t0.169921875-1.69921875q0.283203125-0.8212890625,1.0478515625-0.97705078125t1.4443359375-0.15576171875q1.7841796875,0,2.19482421875,0.56640625t0.41064453125,2.265625q0,6.2021484375-0.55224609375,12.34765625t-0.55224609375,12.34765625q0,3.9931640625,0.15576171875,8.02880859375t1.11865234375,7.94384765625l0.3115234375,0.283203125l0.169921875,0.509765625l-0.4248046875,0.6513671875q-1.076171875,0.6796875-2.4921875,0.6796875l-0.11328125,0q-1.4443359375,0-2.662109375-0.6796875q-0.453125-0.283203125-0.75048828125-1.68505859375t-0.46728515625-3.0869140625t-0.2548828125-3.24267578125t-0.1416015625-2.208984375q-0.9912109375,2.265625-2.70458984375,3.89404296875t-4.31884765625,1.62841796875q-2.0390625,0-3.341796875-0.8779296875t-2.02490234375-2.2373046875t-1.01953125-3.04443359375t-0.29736328125-3.35595703125z M76.965126953125,118.2666015625q0,0.6513671875,0.15576171875,1.92578125t0.49560546875,2.548828125t0.94873046875,2.265625t1.60009765625,0.9912109375q1.3310546875-0.6513671875,2.4072265625-2.16650390625t1.85498046875-3.341796875t1.2177734375-3.6533203125t0.43896484375-3.15771484375q0-1.6708984375-1.2177734375-2.775390625t-2.9169921875-1.1044921875q-0.509765625,0-1.03369140625,0.1982421875t-0.97705078125,0.453125q-1.0478515625,0.9912109375-1.62841796875,1.79833984375t-0.8779296875,1.6708984375t-0.38232421875,1.91162109375t-0.0849609375,2.435546875z"/><path fill="#e60e0e" d="M115.49038085937,103.951171875q0-0.642578125,0.2529296875-0.9501953125t0.9228515625-0.3076171875q0.396484375,0,0.7451171875,0.1640625t0.3486328125,0.697265625q0.0546875,0.779296875,0.0546875,1.6337890625t0.150390625,1.6201171875q0.341796875-0.560546875,0.7724609375-1.12109375t0.9501953125-0.998046875t1.134765625-0.7041015625t1.33984375-0.2666015625q0.984375,0,1.66796875,0.41015625t1.1279296875,1.06640625t0.642578125,1.4833984375t0.1982421875,1.6611328125q0,1.28515625-0.3896484375,2.0986328125t-1.0322265625,1.2783203125t-1.4560546875,0.62890625t-1.6337890625,0.1640625q-0.724609375,0-1.353515625-0.2802734375t-0.875-1.0595703125q0-0.21875,0.3212890625-0.2734375t0.4580078125-0.0546875q0.451171875,0,0.669921875,0.24609375q0.1640625,0.19140625,0.3623046875,0.3896484375t0.4169921875,0.1982421875q0.423828125,0,0.888671875-0.2392578125t0.8544921875-0.62890625t0.65625-0.9228515625t0.2666015625-1.09375q0-0.478515625-0.08203125-1.189453125t-0.2802734375-1.3671875t-0.546875-1.134765625t-0.8818359375-0.478515625q-0.806640625,0-1.4560546875,0.73828125t-1.080078125,1.77734375t-0.669921875,2.16015625t-0.2392578125,1.873046875t0.095703125,1.900390625t0.1982421875,2.3857421875t0.1982421875,2.3857421875t0.095703125,1.900390625q0,0.19140625-0.1572265625,0.3076171875t-0.3759765625,0.1845703125t-0.4443359375,0.08203125t-0.3349609375,0.013671875q-0.369140625,0-0.7724609375-0.08203125t-0.5537109375-0.505859375q-0.19140625-0.669921875-0.35546875-1.9072265625t-0.2939453125-2.734375t-0.2255859375-3.14453125t-0.1640625-3.1787109375t-0.1025390625-2.802734375t-0.0341796875-2.0234375z M128.59719726562,113.75390625q0-0.396484375,0.0341796875-0.833984375t0.0615234375-0.8203125l0.08203125-2.05078125q0.13671875-2.4609375,0.3349609375-4.83984375t0.3349609375-4.8125q0.08203125-1.33984375,0.123046875-2.6318359375t0.123046875-2.6318359375q-0.0546875-0.109375-0.0546875-0.150390625q0-0.19140625,0.1435546875-0.30078125t0.3349609375-0.1845703125t0.4033203125-0.1025390625t0.3212890625-0.02734375l0.314453125,0q0.423828125,0.0546875,0.615234375,0.2666015625t0.24609375,0.505859375t0.02734375,0.62890625t-0.02734375,0.6220703125q0,1.982421875-0.095703125,4.0400390625t-0.21875,4.12890625t-0.2255859375,4.142578125t-0.1025390625,4.0947265625l0,0.95703125q0,0.642578125-0.3623046875,0.84765625t-1.0048828125,0.205078125q-0.560546875,0-0.984375-0.24609375t-0.423828125-0.806640625z M134.86807617188,108.900390625q0-0.9296875,0.2529296875-1.791015625t0.7587890625-1.5380859375t1.2646484375-1.080078125t1.7568359375-0.4033203125q0.615234375,0,1.3603515625,0.1845703125t1.4013671875,0.546875t1.09375,0.9228515625t0.4375,1.28515625q0,0.341796875-0.1162109375,0.51953125t-0.4716796875,0.177734375l-0.150390625-0.02734375q0.396484375,1.06640625,0.68359375,2.1875t0.560546875,2.2421875q0.109375,0.21875,0.1640625,0.3896484375t0.0546875,0.3349609375q0,0.21875-0.123046875,0.3623046875t-0.3212890625,0.2119140625t-0.41015625,0.095703125t-0.3759765625,0.02734375q-0.587890625,0-0.8818359375-0.205078125t-0.423828125-0.560546875t-0.1572265625-0.7998046875t-0.109375-0.8955078125q-0.1640625,0.533203125-0.4306640625,1.0390625t-0.62890625,0.9091796875t-0.8544921875,0.642578125t-1.107421875,0.2392578125q-0.90234375,0-1.517578125-0.51953125t-0.9912109375-1.2783203125t-0.546875-1.6201171875t-0.1708984375-1.599609375z M136.80948242188,108.708984375q0,0.505859375,0.068359375,1.06640625t0.2255859375,1.107421875t0.4033203125,1.0322265625t0.615234375,0.8544921875q0.669921875-0.724609375,0.9912109375-1.763671875t0.57421875-2.0029296875t0.57421875-1.654296875t0.9912109375-0.6904296875q0.423828125,0,0.7109375,0.150390625q-0.13671875-0.341796875-0.451171875-0.6630859375t-0.7041015625-0.587890625t-0.806640625-0.4375t-0.7861328125-0.1708984375q-0.109375,0-0.2529296875,0.0341796875t-0.2255859375,0.0068359375q-0.560546875,0.1640625-0.9228515625,0.5673828125t-0.587890625,0.9501953125t-0.3212890625,1.12109375t-0.095703125,1.080078125z M146.71708007812,105.8515625q0-0.396484375,0.2255859375-0.51953125t0.5673828125-0.123046875q0.560546875,0,0.8544921875,0.2119140625t0.2939453125,0.7451171875q0,0.642578125,0.095703125,1.6064453125t0.2802734375,1.873046875t0.4375,1.5654296875t0.5263671875,0.65625q0.505859375,0,0.8955078125-0.779296875t0.68359375-1.9140625t0.505859375-2.4404296875t0.2939453125-2.3310546875q0.0546875-0.560546875,0.2666015625-0.8134765625t0.7724609375-0.2529296875q0.642578125,0,0.9365234375,0.533203125t0.3759765625,1.3125q0.068359375,0.669921875,0.068359375,1.39453125l0,0.232421875l0,0.546875q0,0.51953125,0.013671875,0.9296875l0.396484375,8.380859375l0.0546875,1.39453125q0.02734375,0.19140625,0.041015625,0.3623046875t0.013671875,0.3623046875q0,0.779296875-0.3349609375,1.0048828125t-1.0869140625,0.2255859375q-0.1640625,0-0.4169921875-0.02734375t-0.4921875-0.109375t-0.41015625-0.2255859375t-0.1708984375-0.3623046875l0.0546875-0.13671875q0.068359375-0.8203125,0.068359375-1.72265625l0-0.287109375q-0.013671875-1.06640625-0.068359375-2.16015625t-0.123046875-2.1875t-0.068359375-2.10546875q-0.19140625,0.423828125-0.4443359375,0.875t-0.587890625,0.8134765625t-0.7587890625,0.6015625t-0.95703125,0.2392578125q-0.779296875,0-1.28515625-0.41015625t-0.7861328125-1.06640625t-0.4033203125-1.4697265625t-0.1640625-1.626953125t-0.0546875-1.5517578125t-0.109375-1.244140625z M158.11491210937,105.373046875q0-0.560546875,0.328125-0.9638671875t0.7998046875-0.65625t1.0322265625-0.3759765625t1.0390625-0.123046875q0.369140625,0,0.984375,0.109375t1.203125,0.328125t1.0185546875,0.57421875t0.4306640625,0.833984375q0,0.21875-0.1640625,0.3896484375t-0.341796875,0.1708984375q-0.369140625,0-0.669921875-0.2392578125t-0.6220703125-0.505859375t-0.7041015625-0.505859375t-0.861328125-0.2392578125t-0.8681640625,0.3076171875t-0.3896484375,0.8134765625q0,0.833984375,0.587890625,1.6337890625t1.2919921875,1.681640625t1.2919921875,1.8525390625t0.587890625,2.146484375q0,0.505859375-0.2119140625,0.8544921875t-0.560546875,0.5673828125t-0.7861328125,0.3349609375t-0.84765625,0.1162109375q-0.451171875,0-1.052734375-0.2119140625t-1.134765625-0.560546875t-0.8955078125-0.8134765625t-0.3623046875-0.970703125q0-0.24609375,0.3486328125-0.314453125t0.5126953125-0.068359375q0.08203125,0,0.2529296875,0.0546875t0.3349609375,0.123046875t0.2939453125,0.150390625t0.1025390625,0.177734375q0.13671875,0.1640625,0.4169921875,0.4853515625t0.560546875,0.51953125t0.4921875,0.1435546875t0.2119140625-0.615234375q0-1.06640625-0.57421875-1.9619140625t-1.2509765625-1.75t-1.2509765625-1.6953125t-0.57421875-1.7978515625z"/></svg>
