<?xml version="1.0"?>
<svg version="1.1" xmlns="http://www.w3.org/2000/svg" width="400" height="390" style=""><path fill="#d1c7d1" d="M17.35302734375,235.77294921875l0.81005859375-0.96435546875q-0.154296875-6.48046875-0.34716796875-12.92236328125t-0.19287109375-12.806640625q0-7.90771484375,0.945068359375-15.294677734375t1.870849609375-15.140380859375q0.0771484375-0.462890625,0.443603515625-0.752197265625t0.906494140625-0.482177734375t1.099365234375-0.27001953125t1.022216796875-0.0771484375q0.6171875,0,1.54296875,0.2314453125t1.8515625,1.35009765625q0,0.3857421875,0.057861328125,0.675048828125t0.057861328125,0.675048828125q0,2.931640625-0.790771484375,6.28759765625t-1.060791015625,6.44189453125q-0.30859375,3.7802734375-0.42431640625,7.4833984375t-0.11572265625,7.52197265625l0.0771484375,3.39453125q0.771484375-0.96435546875,2.19873046875-2.46875t3.0859375-2.912353515625t3.3173828125-2.410888671875t3.0087890625-1.0029296875q2.04443359375,0,2.835205078125,1.1572265625t0.790771484375,3.04736328125q0,1.73583984375-0.752197265625,3.6259765625t-1.96728515625,3.683837890625t-2.758056640625,3.220947265625t-3.04736328125,2.12158203125q2.04443359375,2.5458984375,4.185302734375,4.8603515625t4.686767578125,4.35888671875l0,0.88720703125q-0.0771484375,0.3857421875-0.482177734375,0.57861328125t-0.88720703125,0.30859375t-0.945068359375,0.173583984375t-0.771484375,0.057861328125q-1.89013671875,0-3.645263671875-1.11865234375t-3.27880859375-2.73876953125t-2.873779296875-3.43310546875t-2.46875-3.1630859375q0.2314453125,4.43603515625,0.520751953125,8.852783203125t0.289306640625,8.852783203125q0,0.5400390625-0.482177734375,0.906494140625t-1.11865234375,0.559326171875t-1.292236328125,0.27001953125t-1.080078125,0.0771484375q-2.27587890625,0-3.220947265625-0.829345703125t-1.600830078125-2.873779296875z M25.2607421875,217.6044921875q0.96435546875,0,2.295166015625-0.829345703125t2.758056640625-2.063720703125t2.66162109375-2.603759765625t1.986572265625-2.603759765625t0.752197265625-1.986572265625t-1.04150390625-0.675048828125q-0.3857421875,0-1.58154296875,1.11865234375t-2.66162109375,2.73876953125t-2.931640625,3.51025390625t-2.2373046875,3.39453125z M47.813930664062,220.8447265625q0-2.19873046875,0.559326171875-4.532470703125t1.7744140625-4.20458984375t3.066650390625-3.04736328125t4.474609375-1.176513671875q1.96728515625,0,4.146728515625,0.675048828125t3.992431640625,1.9287109375t2.950927734375,3.066650390625t1.137939453125,4.05029296875q0,2.7001953125-0.983642578125,5.13037109375t-2.758056640625,4.339599609375t-4.146728515625,3.0087890625t-5.149658203125,1.099365234375q-2.27587890625,0-3.97314453125-0.829345703125t-2.835205078125-2.218017578125t-1.697265625-3.27880859375t-0.559326171875-4.01171875z M53.484340820312,220.767578125q0,0.6943359375,0.212158203125,2.04443359375t0.636474609375,2.642333984375t1.099365234375,2.2373046875t1.639404296875,0.867919921875q2.04443359375-0.2314453125,3.375244140625-1.330810546875t2.16015625-2.680908203125t1.1572265625-3.43310546875t0.327880859375-3.51025390625q0-2.12158203125-0.829345703125-3.548828125t-2.719482421875-2.314453125q0,0.0771484375,0.0771484375,0.0771484375t0.0771484375-0.0771484375l-0.96435546875-0.2314453125q-0.3857421875-0.154296875-0.945068359375-0.34716796875t-1.099365234375-0.8486328125q-1.50439453125,0.5400390625-2.333740234375,1.388671875t-1.253662109375,2.063720703125t-0.520751953125,2.912353515625t-0.096435546875,4.0888671875z M77.040458984375,233.8056640625q0-1.11865234375,0.096435546875-2.35302734375t0.173583984375-2.314453125l0.2314453125-5.7861328125q0.3857421875-6.943359375,0.945068359375-13.6552734375t0.945068359375-13.578125q0.2314453125-3.7802734375,0.34716796875-7.425537109375t0.34716796875-7.425537109375q-0.154296875-0.30859375-0.154296875-0.42431640625q0-0.5400390625,0.405029296875-0.8486328125t0.945068359375-0.520751953125t1.137939453125-0.289306640625t0.906494140625-0.0771484375l0.88720703125,0q1.19580078125,0.154296875,1.73583984375,0.752197265625t0.6943359375,1.42724609375t0.0771484375,1.7744140625t-0.0771484375,1.755126953125q0,5.59326171875-0.27001953125,11.398681640625t-0.6171875,11.6494140625t-0.636474609375,11.68798828125t-0.289306640625,11.552978515625l0,2.7001953125q0,1.81298828125-1.022216796875,2.3916015625t-2.835205078125,0.57861328125q-1.58154296875,0-2.77734375-0.6943359375t-1.19580078125-2.27587890625z M94.733295898438,219.64892578125q0-3.0087890625,0.636474609375-5.458251953125t2.025146484375-4.146728515625t3.645263671875-2.642333984375t5.496826171875-0.945068359375q1.81298828125,0,3.703125,0.482177734375t3.240234375,1.793701171875q0-0.771484375,0.154296875-3.182373046875t0.3857421875-5.612548828125t0.482177734375-6.7119140625t0.443603515625-6.51904296875t0.34716796875-5.05322265625t0.2314453125-2.314453125q0.3857421875-1.11865234375,1.42724609375-1.330810546875t1.96728515625-0.212158203125q2.43017578125,0,2.989501953125,0.771484375t0.559326171875,3.0859375q0,8.44775390625-0.752197265625,16.818359375t-0.752197265625,16.818359375q0,5.43896484375,0.212158203125,10.935791015625t1.523681640625,10.820068359375l0.42431640625,0.3857421875l0.2314453125,0.6943359375l-0.57861328125,0.88720703125q-1.4658203125,0.92578125-3.39453125,0.92578125l-0.154296875,0q-1.96728515625,0-3.6259765625-0.92578125q-0.6171875-0.3857421875-1.022216796875-2.295166015625t-0.636474609375-4.20458984375t-0.34716796875-4.416748046875t-0.19287109375-3.0087890625q-1.35009765625,3.0859375-3.683837890625,5.303955078125t-5.882568359375,2.218017578125q-2.77734375,0-4.5517578125-1.19580078125t-2.758056640625-3.04736328125t-1.388671875-4.146728515625t-0.405029296875-4.571044921875z M99.400776367188,219.88037109375q0,0.88720703125,0.212158203125,2.623046875t0.675048828125,3.4716796875t1.292236328125,3.0859375t2.179443359375,1.35009765625q1.81298828125-0.88720703125,3.27880859375-2.950927734375t2.526611328125-4.5517578125t1.65869140625-4.97607421875t0.597900390625-4.301025390625q0-2.27587890625-1.65869140625-3.7802734375t-3.97314453125-1.50439453125q-0.6943359375,0-1.407958984375,0.27001953125t-1.330810546875,0.6171875q-1.42724609375,1.35009765625-2.218017578125,2.449462890625t-1.19580078125,2.27587890625t-0.520751953125,2.603759765625t-0.11572265625,3.3173828125z"/><path fill="#e60e0e" d="M150.41779785156,202.0556640625q0-1.1474609375,0.45166015625-1.69677734375t1.64794921875-0.54931640625q0.7080078125,0,1.33056640625,0.29296875t0.62255859375,1.2451171875q0.09765625,1.3916015625,0.09765625,2.91748046875t0.2685546875,2.89306640625q0.6103515625-1.0009765625,1.37939453125-2.001953125t1.69677734375-1.7822265625t2.0263671875-1.25732421875t2.392578125-0.47607421875q1.7578125,0,2.978515625,0.732421875t2.01416015625,1.904296875t1.1474609375,2.64892578125t0.35400390625,2.96630859375q0,2.294921875-0.69580078125,3.74755859375t-1.84326171875,2.28271484375t-2.60009765625,1.123046875t-2.91748046875,0.29296875q-1.2939453125,0-2.4169921875-0.50048828125t-1.5625-1.89208984375q0-0.390625,0.57373046875-0.48828125t0.81787109375-0.09765625q0.8056640625,0,1.1962890625,0.439453125q0.29296875,0.341796875,0.64697265625,0.69580078125t0.74462890625,0.35400390625q0.7568359375,0,1.5869140625-0.42724609375t1.52587890625-1.123046875t1.171875-1.64794921875t0.47607421875-1.953125q0-0.8544921875-0.146484375-2.1240234375t-0.50048828125-2.44140625t-0.9765625-2.0263671875t-1.57470703125-0.8544921875q-1.4404296875,0-2.60009765625,1.318359375t-1.9287109375,3.173828125t-1.1962890625,3.857421875t-0.42724609375,3.3447265625t0.1708984375,3.3935546875t0.35400390625,4.26025390625t0.35400390625,4.26025390625t0.1708984375,3.3935546875q0,0.341796875-0.28076171875,0.54931640625t-0.67138671875,0.32958984375t-0.79345703125,0.146484375t-0.59814453125,0.0244140625q-0.6591796875,0-1.37939453125-0.146484375t-0.98876953125-0.9033203125q-0.341796875-1.1962890625-0.634765625-3.40576171875t-0.52490234375-4.8828125t-0.40283203125-5.615234375t-0.29296875-5.67626953125t-0.18310546875-5.0048828125t-0.06103515625-3.61328125z M173.82282714844,219.560546875q0-0.7080078125,0.06103515625-1.4892578125t0.10986328125-1.46484375l0.146484375-3.662109375q0.244140625-4.39453125,0.59814453125-8.642578125t0.59814453125-8.59375q0.146484375-2.392578125,0.2197265625-4.69970703125t0.2197265625-4.69970703125q-0.09765625-0.1953125-0.09765625-0.2685546875q0-0.341796875,0.25634765625-0.537109375t0.59814453125-0.32958984375t0.72021484375-0.18310546875t0.57373046875-0.048828125l0.5615234375,0q0.7568359375,0.09765625,1.0986328125,0.47607421875t0.439453125,0.9033203125t0.048828125,1.123046875t-0.048828125,1.11083984375q0,3.5400390625-0.1708984375,7.21435546875t-0.390625,7.373046875t-0.40283203125,7.3974609375t-0.18310546875,7.31201171875l0,1.708984375q0,1.1474609375-0.64697265625,1.513671875t-1.79443359375,0.3662109375q-1.0009765625,0-1.7578125-0.439453125t-0.7568359375-1.4404296875z M185.02082519531,210.8935546875q0-1.66015625,0.45166015625-3.1982421875t1.35498046875-2.74658203125t2.25830078125-1.9287109375t3.13720703125-0.72021484375q1.0986328125,0,2.42919921875,0.32958984375t2.50244140625,0.9765625t1.953125,1.64794921875t0.78125,2.294921875q0,0.6103515625-0.20751953125,0.927734375t-0.84228515625,0.3173828125l-0.2685546875-0.048828125q0.7080078125,1.904296875,1.220703125,3.90625t1.0009765625,4.00390625q0.1953125,0.390625,0.29296875,0.69580078125t0.09765625,0.59814453125q0,0.390625-0.2197265625,0.64697265625t-0.57373046875,0.37841796875t-0.732421875,0.1708984375t-0.67138671875,0.048828125q-1.0498046875,0-1.57470703125-0.3662109375t-0.7568359375-1.0009765625t-0.28076171875-1.42822265625t-0.1953125-1.59912109375q-0.29296875,0.9521484375-0.76904296875,1.85546875t-1.123046875,1.62353515625t-1.52587890625,1.1474609375t-1.9775390625,0.42724609375q-1.611328125,0-2.7099609375-0.927734375t-1.77001953125-2.28271484375t-0.9765625-2.89306640625t-0.30517578125-2.8564453125z M188.48762207031,210.5517578125q0,0.9033203125,0.1220703125,1.904296875t0.40283203125,1.9775390625t0.72021484375,1.84326171875t1.0986328125,1.52587890625q1.1962890625-1.2939453125,1.77001953125-3.1494140625t1.025390625-3.57666015625t1.025390625-2.9541015625t1.77001953125-1.23291015625q0.7568359375,0,1.26953125,0.2685546875q-0.244140625-0.6103515625-0.8056640625-1.18408203125t-1.25732421875-1.0498046875t-1.4404296875-0.78125t-1.40380859375-0.30517578125q-0.1953125,0-0.45166015625,0.06103515625t-0.40283203125,0.01220703125q-1.0009765625,0.29296875-1.64794921875,1.01318359375t-1.0498046875,1.69677734375t-0.57373046875,2.001953125t-0.1708984375,1.9287109375z M206.17976074219,205.44921875q0-0.7080078125,0.40283203125-0.927734375t1.01318359375-0.2197265625q1.0009765625,0,1.52587890625,0.37841796875t0.52490234375,1.33056640625q0,1.1474609375,0.1708984375,2.86865234375t0.50048828125,3.3447265625t0.78125,2.79541015625t0.93994140625,1.171875q0.9033203125,0,1.59912109375-1.3916015625t1.220703125-3.41796875t0.9033203125-4.35791015625t0.52490234375-4.16259765625q0.09765625-1.0009765625,0.47607421875-1.45263671875t1.37939453125-0.45166015625q1.1474609375,0,1.67236328125,0.9521484375t0.67138671875,2.34375q0.1220703125,1.1962890625,0.1220703125,2.490234375l0,0.4150390625l0,0.9765625q0,0.927734375,0.0244140625,1.66015625l0.7080078125,14.9658203125l0.09765625,2.490234375q0.048828125,0.341796875,0.0732421875,0.64697265625t0.0244140625,0.64697265625q0,1.3916015625-0.59814453125,1.79443359375t-1.94091796875,0.40283203125q-0.29296875,0-0.74462890625-0.048828125t-0.87890625-0.1953125t-0.732421875-0.40283203125t-0.30517578125-0.64697265625l0.09765625-0.244140625q0.1220703125-1.46484375,0.1220703125-3.076171875l0-0.5126953125q-0.0244140625-1.904296875-0.1220703125-3.857421875t-0.2197265625-3.90625t-0.1220703125-3.759765625q-0.341796875,0.7568359375-0.79345703125,1.5625t-1.0498046875,1.45263671875t-1.35498046875,1.07421875t-1.708984375,0.42724609375q-1.3916015625,0-2.294921875-0.732421875t-1.40380859375-1.904296875t-0.72021484375-2.62451171875t-0.29296875-2.9052734375t-0.09765625-2.77099609375t-0.1953125-2.2216796875z M226.53303222656,204.5947265625q0-1.0009765625,0.5859375-1.72119140625t1.42822265625-1.171875t1.84326171875-0.67138671875t1.85546875-0.2197265625q0.6591796875,0,1.7578125,0.1953125t2.1484375,0.5859375t1.81884765625,1.025390625t0.76904296875,1.4892578125q0,0.390625-0.29296875,0.69580078125t-0.6103515625,0.30517578125q-0.6591796875,0-1.1962890625-0.42724609375t-1.11083984375-0.9033203125t-1.25732421875-0.9033203125t-1.5380859375-0.42724609375t-1.55029296875,0.54931640625t-0.69580078125,1.45263671875q0,1.4892578125,1.0498046875,2.91748046875t2.30712890625,3.0029296875t2.30712890625,3.30810546875t1.0498046875,3.8330078125q0,0.9033203125-0.37841796875,1.52587890625t-1.0009765625,1.01318359375t-1.40380859375,0.59814453125t-1.513671875,0.20751953125q-0.8056640625,0-1.8798828125-0.37841796875t-2.0263671875-1.0009765625t-1.59912109375-1.45263671875t-0.64697265625-1.7333984375q0-0.439453125,0.62255859375-0.5615234375t0.91552734375-0.1220703125q0.146484375,0,0.45166015625,0.09765625t0.59814453125,0.2197265625t0.52490234375,0.2685546875t0.18310546875,0.3173828125q0.244140625,0.29296875,0.74462890625,0.86669921875t1.0009765625,0.927734375t0.87890625,0.25634765625t0.37841796875-1.0986328125q0-1.904296875-1.025390625-3.50341796875t-2.23388671875-3.125t-2.23388671875-3.02734375t-1.025390625-3.21044921875z"/></svg>
